<svg preserveAspectRatio="none" width="100%" height="100%" overflow="visible" style="display: block;" viewBox="0 0 72.9288 147.496" fill="none" xmlns="http://www.w3.org/2000/svg">
<g id="tree">
<path id="Vector" d="M42.8328 85.0753C41.7289 84.9642 40.6159 85.1666 39.6218 85.6591C37.7551 86.7205 35.9981 87.9641 34.3765 89.3718C32.7412 90.7818 30.7133 91.6572 28.5657 91.8804C26.422 91.9534 24.1049 90.6216 23.7218 88.5052C23.6948 88.135 23.5989 87.773 23.439 87.4379C23.2292 87.1694 22.9369 86.9775 22.6071 86.8917C22.2774 86.806 21.9285 86.8312 21.6146 86.9636C20.9906 87.2415 20.3975 87.5839 19.8449 87.9853C17.6738 89.2624 14.9554 88.9705 12.465 88.6056C10.3943 88.3045 7.77619 87.3923 7.78531 85.2942C7.78531 83.9259 8.98032 82.9225 9.9199 81.9282C10.8595 80.9338 11.6258 79.3375 10.7683 78.2793C10.4425 77.9269 10.0258 77.6713 9.56415 77.5404C6.97345 76.7012 3.79892 77.8232 1.6096 76.1994C0.837637 75.5441 0.305696 74.6506 0.0975911 73.6596C-0.110513 72.6686 0.0170427 71.6366 0.460191 70.7261C0.931497 69.8279 1.59393 69.0439 2.40086 68.4293C3.20778 67.8146 4.1396 67.3843 5.13075 67.1685C6.87309 66.7215 9.08066 66.5208 9.69185 64.8423C10.2665 63.3737 9.12627 61.7864 7.86741 60.8833C6.60854 59.9802 5.03043 59.3508 4.12733 58.0555C3.68402 57.3667 3.4385 56.5693 3.41758 55.7505C3.39667 54.9316 3.60117 54.1228 4.00874 53.4123C4.42742 52.71 4.99316 52.1066 5.66712 51.6437C6.34107 51.1807 7.10726 50.8691 7.91304 50.7304C8.72409 50.6691 9.52251 50.494 10.2848 50.2104C10.6651 50.0592 10.9722 49.767 11.1422 49.3947C11.3122 49.0225 11.3318 48.599 11.197 48.2126C10.9599 47.7839 10.4672 47.565 10.1845 47.1636C9.97058 46.7399 9.92409 46.2512 10.0543 45.7948C10.1844 45.3384 10.4817 44.9477 10.8869 44.7006C11.7122 44.2308 12.6042 43.8894 13.5323 43.688C15.4115 43.0586 17.2359 41.2342 16.6794 39.3368C16.123 37.4394 13.3955 36.7096 12.5927 34.7757C11.8812 33.0881 13.0123 31.1268 14.5175 30.1051C16.0227 29.0835 17.8653 28.6547 19.5165 27.8793C21.1676 27.104 22.764 25.7174 22.8917 23.893C23.0194 22.0685 21.6328 20.463 20.4925 18.9761C19.3522 17.4892 18.3853 15.4185 19.3796 13.8403C20.374 12.2622 22.4629 12.2257 24.1779 11.6784C25.222 11.3428 26.1831 10.7896 26.9976 10.0553C27.8121 9.32097 28.4616 8.42219 28.9032 7.41833C29.3593 6.36928 29.5783 5.21077 30.1256 4.20733C31.8223 1.06018 36.1006 -0.353751 39.412 0.0749908C41.1452 0.275678 41.7199 0.987206 42.5591 2.2187C43.1208 2.8341 43.5191 3.58057 43.7176 4.38977C43.9639 5.90405 43.1703 7.83795 44.6299 8.95085C46.8101 10.7114 50.1032 8.33967 50.0211 12.2713C50.0231 13.9321 49.774 15.5836 49.2822 17.1699C48.6892 18.8302 47.5033 19.5417 48.4977 21.3935C49.7748 23.7926 50.6049 23.7744 53.1682 23.7744C54.9927 23.7744 56.5617 23.674 57.9209 25.0788C60.3109 27.5418 58.8878 29.7859 56.7715 31.6833C54.3632 33.8544 55.6404 34.8031 55.9505 37.6036C56.1056 38.9536 55.7954 39.3733 56.9996 40.2672C59.2892 41.964 60.5572 41.3893 59.9186 44.7097C59.3348 47.7383 60.2379 46.6984 62.8651 47.8295C65.1913 48.8329 66.7329 51.3415 68.6121 52.9014C69.8253 53.9049 71.6772 54.7259 71.7866 56.45C72.0056 59.8343 67.8094 59.0954 65.8116 59.8981C62.5459 61.2208 63.5219 65.4991 66.067 67.0955C68.8037 68.7922 72.6988 69.4217 72.9178 73.2895C73.082 76.2633 71.3944 76.9383 69.0956 77.9053C67.2712 78.6989 67.4901 78.9361 67.4901 81.1254C67.4901 85.5496 66.0032 86.8085 61.6427 86.0879C60.4477 85.8872 58.6233 85.3763 57.4283 85.7412C55.7589 86.2429 56.3245 86.6534 56.2789 88.0491C56.1603 91.6159 52.0006 90.6124 50.24 89.0799C48.1419 87.3923 45.5877 85.3216 42.8328 85.0753Z" fill="var(--fill-0, #95A86A)"/>
<path id="Vector_2" opacity="0.15" d="M42.8328 85.0753C41.7289 84.9642 40.6159 85.1666 39.6218 85.6591C37.7551 86.7205 35.9981 87.9641 34.3765 89.3718C32.7412 90.7818 30.7133 91.6572 28.5657 91.8804C26.422 91.9534 24.1049 90.6216 23.7218 88.5052C23.6948 88.135 23.5989 87.773 23.439 87.4379C23.2292 87.1694 22.9369 86.9775 22.6071 86.8917C22.2774 86.806 21.9285 86.8312 21.6146 86.9636C20.9906 87.2415 20.3975 87.5839 19.8449 87.9853C17.6738 89.2624 14.9554 88.9705 12.465 88.6056C10.3943 88.3045 7.77619 87.3923 7.78531 85.2942C7.78531 83.9259 8.98032 82.9225 9.9199 81.9282C10.8595 80.9338 11.6258 79.3375 10.7683 78.2793C10.4425 77.9269 10.0258 77.6713 9.56415 77.5404C6.97345 76.7012 3.79892 77.8232 1.6096 76.1994C0.837637 75.5441 0.305696 74.6506 0.0975911 73.6596C-0.110513 72.6686 0.0170427 71.6366 0.460191 70.7261C0.931497 69.8279 1.59393 69.0439 2.40086 68.4293C3.20778 67.8146 4.1396 67.3843 5.13075 67.1685C6.87309 66.7215 9.08066 66.5208 9.69185 64.8423C10.2665 63.3737 9.12627 61.7864 7.86741 60.8833C6.60854 59.9802 5.03043 59.3508 4.12733 58.0555C3.68402 57.3667 3.4385 56.5693 3.41758 55.7505C3.39667 54.9316 3.60117 54.1228 4.00874 53.4123C4.42742 52.71 4.99316 52.1066 5.66712 51.6437C6.34107 51.1807 7.10726 50.8691 7.91304 50.7304C8.72409 50.6691 9.52251 50.494 10.2848 50.2104C10.6651 50.0592 10.9722 49.767 11.1422 49.3947C11.3122 49.0225 11.3318 48.599 11.197 48.2126C10.9599 47.7839 10.4672 47.565 10.1845 47.1636C9.97058 46.7399 9.92409 46.2512 10.0543 45.7948C10.1844 45.3384 10.4817 44.9477 10.8869 44.7006C11.7122 44.2308 12.6042 43.8894 13.5323 43.688C15.4115 43.0586 17.2359 41.2342 16.6794 39.3368C16.123 37.4394 13.3955 36.7096 12.5927 34.7757C11.8812 33.0881 13.0123 31.1268 14.5175 30.1051C16.0227 29.0835 17.8653 28.6547 19.5165 27.8793C21.1676 27.104 22.764 25.7174 22.8917 23.893C23.0194 22.0685 21.6328 20.463 20.4925 18.9761C19.3522 17.4892 18.3853 15.4185 19.3796 13.8403C20.374 12.2622 22.4629 12.2257 24.1779 11.6784C25.222 11.3428 26.1831 10.7896 26.9976 10.0553C27.8121 9.32097 28.4616 8.42219 28.9032 7.41833C29.3593 6.36928 29.5783 5.21077 30.1256 4.20733C31.8223 1.06018 36.1006 -0.353751 39.412 0.0749908C41.1452 0.275678 41.7199 0.987206 42.5591 2.2187C43.1208 2.8341 43.5191 3.58057 43.7176 4.38977C43.9639 5.90405 43.1703 7.83795 44.6299 8.95085C46.8101 10.7114 50.1032 8.33967 50.0211 12.2713C50.0231 13.9321 49.774 15.5836 49.2822 17.1699C48.6892 18.8302 47.5033 19.5417 48.4977 21.3935C49.7748 23.7926 50.6049 23.7744 53.1682 23.7744C54.9927 23.7744 56.5617 23.674 57.9209 25.0788C60.3109 27.5418 58.8878 29.7859 56.7715 31.6833C54.3632 33.8544 55.6404 34.8031 55.9505 37.6036C56.1056 38.9536 55.7954 39.3733 56.9996 40.2672C59.2892 41.964 60.5572 41.3893 59.9186 44.7097C59.3348 47.7383 60.2379 46.6984 62.8651 47.8295C65.1913 48.8329 66.7329 51.3415 68.6121 52.9014C69.8253 53.9049 71.6772 54.7259 71.7866 56.45C72.0056 59.8343 67.8094 59.0954 65.8116 59.8981C62.5459 61.2208 63.5219 65.4991 66.067 67.0955C68.8037 68.7922 72.6988 69.4217 72.9178 73.2895C73.082 76.2633 71.3944 76.9383 69.0956 77.9053C67.2712 78.6989 67.4901 78.9361 67.4901 81.1254C67.4901 85.5496 66.0032 86.8085 61.6427 86.0879C60.4477 85.8872 58.6233 85.3763 57.4283 85.7412C55.7589 86.2429 56.3245 86.6534 56.2789 88.0491C56.1603 91.6159 52.0006 90.6124 50.24 89.0799C48.1419 87.3923 45.5877 85.3216 42.8328 85.0753Z" fill="var(--fill-0, black)"/>
<path id="Vector_3" opacity="0.15" d="M9.56436 77.5405C7.57573 76.8928 5.24043 77.4037 3.27916 76.9476C4.43656 76.6705 5.6139 76.4844 6.80034 76.3911C8.20877 76.3303 9.61419 76.567 10.925 77.0857C12.2359 77.6043 13.4227 78.3934 14.4082 79.4014C13.3635 80.6869 12.8191 82.307 12.8757 83.9625C17.82 85.3035 22.6821 78.6717 27.3982 80.6877C27.1063 83.0777 27.3983 86.2978 29.7153 86.8177C31.0836 87.1279 32.452 86.2157 33.3094 85.0937C34.1669 83.9716 34.6778 82.6307 35.5353 81.5178C36.7312 80.0766 38.4188 79.1297 40.272 78.8602C42.1253 78.5906 44.0127 79.0174 45.5697 80.0582C46.6552 80.8427 49.0087 82.6124 50.2494 81.2532C50.6964 80.7606 50.5777 80.1038 50.7693 79.52C50.954 79.1103 51.1967 78.7294 51.49 78.3889C52.0829 77.4766 51.6998 76.6374 50.5777 76.2087C49.5504 75.9914 48.5119 75.83 47.4671 75.7252C46.9287 75.6069 46.4241 75.3682 45.9912 75.0269C45.5583 74.6856 45.2083 74.2507 44.9676 73.7548C44.7359 73.2528 44.6589 72.6931 44.7467 72.1472C44.8344 71.6013 45.0828 71.0939 45.4602 70.6898C45.8525 70.2975 46.3724 70.0512 46.7738 69.6772C46.9939 69.5069 47.1547 69.2716 47.2333 69.0046C47.312 68.7376 47.3044 68.4527 47.2117 68.1903C47.0627 67.9454 46.8519 67.7441 46.6005 67.6065C44.8308 66.3902 43.0884 65.1344 41.3735 63.839C40.3974 63.1001 39.3574 62.2153 39.1932 61.002C39.1308 60.1351 39.4016 59.277 39.9504 58.6029C41.3826 56.669 44.0645 55.6108 44.7122 53.2847C44.817 52.436 45.0127 51.6011 45.296 50.7943C45.8981 49.654 47.312 49.2709 48.58 49.0337C49.0245 49.0154 49.4598 48.9016 49.8565 48.7001C50.2531 48.4986 50.6018 48.2142 50.8788 47.8661C51.1119 47.4032 51.1671 46.8709 51.0339 46.3701C50.5686 44.1351 48.1969 42.7759 47.385 40.6322C47.1047 39.7025 47.0546 38.7185 47.239 37.7651C47.4233 36.8116 47.8366 35.9173 48.4432 35.1589C50.3568 32.7266 52.8375 30.8004 55.6679 29.5488C56.8202 29.1499 57.9295 28.6365 58.9793 28.0163L59.0888 27.9342C59.0158 29.3208 57.985 30.5979 56.6987 31.7564C54.2905 33.9274 55.5676 34.8762 55.8777 37.6767C56.0328 39.0267 55.7227 39.4464 56.9268 40.3403C59.2165 42.0371 60.4845 41.4624 59.8459 44.7828C59.2621 47.8114 60.1652 46.7714 62.7924 47.9026C65.1185 48.906 66.6602 51.4146 68.5394 52.9745C69.7526 53.978 71.6044 54.7989 71.7139 56.523C71.9328 59.9074 67.7366 59.1685 65.7388 59.9712C62.4731 61.2939 63.4492 65.5722 65.9943 67.1686C68.7309 68.8653 72.6261 69.4948 72.845 73.3626C73.0092 76.3364 71.3216 77.0114 69.0228 77.9784C67.1984 78.772 67.4173 79.0092 67.4173 81.1985C67.4173 85.6227 65.9304 86.8816 61.57 86.161C60.375 85.9603 58.5505 85.4494 57.3555 85.8143C55.6862 86.316 56.2518 86.7265 56.2062 88.1222C56.0876 91.689 51.9279 90.6855 50.1673 89.153C48.1421 87.3924 45.6062 85.3491 42.8695 85.0754C41.7656 84.9643 40.6527 85.1667 39.6585 85.6592C37.7918 86.7206 36.0348 87.9642 34.4132 89.372C32.7779 90.7819 30.75 91.6573 28.6024 91.8806C26.4587 91.9535 24.1416 90.6217 23.7585 88.5054C23.7315 88.1351 23.6356 87.7731 23.4757 87.4381C23.266 87.1695 22.9736 86.9776 22.6438 86.8918C22.3141 86.8061 21.9653 86.8314 21.6513 86.9637C21.0273 87.2416 20.4342 87.584 19.8816 87.9854C17.7105 89.2625 14.9921 88.9706 12.5017 88.6057C10.431 88.3047 7.8129 87.3924 7.82202 85.2943C7.82202 83.926 9.01703 82.9226 9.95661 81.9283C10.8962 80.934 11.6625 79.3376 10.805 78.2794C10.4692 77.9213 10.0392 77.6652 9.56436 77.5405Z" fill="var(--fill-0, black)"/>
<path id="Vector_4" d="M49.638 48.6324L37.7336 72.2406V61.3761L36.5203 15.0811L34.7597 61.3761V68.6738L21.6785 45.7954L34.7597 73.8826V146.641C34.772 146.771 34.8191 146.896 34.8961 147.002C34.9731 147.108 35.0773 147.191 35.1976 147.243C35.5222 147.41 35.8818 147.496 36.2466 147.496C36.6115 147.496 36.9711 147.41 37.2957 147.243C37.416 147.191 37.5201 147.108 37.5972 147.002C37.6742 146.896 37.7213 146.771 37.7336 146.641V78.2247L49.638 48.6324Z" fill="var(--fill-0, #37474F)"/>
</g>
</svg>
